<?xml version="1.0" encoding="UTF-8"?>
<!DOCTYPE svg PUBLIC "-//W3C//DTD SVG 1.1//EN" "http://www.w3.org/Graphics/SVG/1.1/DTD/svg11.dtd">
<!-- Creator: CorelDRAW 2019 (64-Bit) -->
<svg xmlns="http://www.w3.org/2000/svg" xml:space="preserve" width="618.432mm" height="153.472mm" version="1.1" style="shape-rendering:geometricPrecision; text-rendering:geometricPrecision; image-rendering:optimizeQuality; fill-rule:evenodd; clip-rule:evenodd"
viewBox="0 0 22119.48 5489.24"
 xmlns:xlink="http://www.w3.org/1999/xlink"
 xmlns:xodm="http://www.corel.com/coreldraw/odm/2003">
 <defs>
  <style type="text/css">
   <![CDATA[
    .fil0 {fill:#A12421}
    .fil1 {fill:#A12421;fill-rule:nonzero}
   ]]>
  </style>
 </defs>
 <g id="Слой_x0020_1">
  <metadata id="CorelCorpID_0Corel-Layer"/>
  <polygon class="fil0" points="623.13,3268.47 -0,696.41 651.85,44.56 3186.35,44.56 512.64,696.41 623.13,1204.63 "/>
  <polygon class="fil0" points="4001.65,4882.95 6547.96,5489.24 7224.3,4862.83 7210.89,2330.2 6569.09,4874.51 "/>
  <path class="fil1" d="M9785.56 51.89l1130.17 0 0 386.33 -738.06 0 0 371.92 738.06 0 0 380.57 -738.06 0 0 544.9 738.06 0 0 386.33 -1130.17 0 0 -2070.05zm1951 0l373.84 0 891.83 1362.26 0 -1362.26 392.1 0 0 2070.05 -376.73 0 -888.94 -1357.93 0 1357.93 -392.1 0 0 -2070.05zm2379.63 0l1144.58 0 0 389.21 -377.69 0 0 1680.84 -400.74 0 0 -1680.84 -366.15 0 0 -389.21zm1867.39 0l1130.17 0 0 386.33 -738.06 0 0 371.92 738.06 0 0 380.57 -738.06 0 0 544.9 738.06 0 0 386.33 -1130.17 0 0 -2070.05zm3850.95 363.28l-276.29 262.36c-187.88,-197.97 -398.82,-296.96 -633.8,-296.96 -197.97,0 -365.19,67.76 -500.7,202.77 -135.99,135.03 -203.74,301.28 -203.74,499.25 0,137.91 30.27,260.44 90.34,367.11 60.06,107.15 145.11,191.24 254.67,252.27 110.04,61.03 232.09,91.3 366.64,91.3 114.35,0 219.11,-21.14 313.77,-63.91 95.14,-42.77 199.41,-120.61 312.81,-233.05l267.64 279.66c-152.8,149.44 -297.44,253.23 -433.42,310.89 -135.99,58.14 -291.68,86.97 -466.1,86.97 -321.95,0 -585.75,-101.87 -790.93,-306.09 -205.18,-203.73 -307.53,-465.61 -307.53,-784.2 0,-206.62 46.61,-389.69 140.31,-550.19 93.22,-160.49 226.8,-289.26 401.22,-386.81 173.95,-97.54 361.34,-146.56 562.68,-146.56 170.58,0 334.92,36.04 493.49,108.12 158.09,72.07 294.55,174.43 408.91,307.05zm794.41 -363.28l400.74 0 0 781.32 691.94 0 0 -781.32 397.87 0 0 2070.05 -397.87 0 0 -908.17 -691.94 0 0 908.17 -400.74 0 0 -2070.05z"/>
  <path class="fil1" d="M11696.56 3466l-277.25 274.37c-175.39,-185.48 -380.09,-278.22 -613.62,-278.22 -203.26,0 -373.84,67.27 -511.26,202.3 -137.43,135.03 -206.14,298.88 -206.14,492.04 0,199.42 71.11,368.55 213.82,507.42 142.72,138.87 318.58,208.06 527.61,208.06 135.99,0 250.83,-28.83 344.05,-86 93.22,-57.18 168.66,-146.56 225.84,-268.61l-599.2 0 0 -369.03 1040.8 0 2.88 86.97c0,181.15 -47.09,352.7 -140.79,515.11 -94.18,161.94 -215.75,285.91 -364.71,371.43 -149.44,85.05 -324.83,127.82 -525.69,127.82 -214.78,0 -406.51,-46.61 -575.17,-139.83 -168.67,-93.71 -301.77,-226.33 -400.27,-398.83 -98.02,-172.98 -147.04,-358.95 -147.04,-558.84 0,-273.89 90.82,-512.22 271.97,-714.52 214.79,-241.22 494.94,-361.83 839.46,-361.83 180.19,0 348.85,33.15 505.98,99.95 132.14,56.22 261.88,153.29 388.73,290.23zm589.85 -338.28l418.53 0c228.72,0 392.09,20.19 489.16,61.03 97.54,40.85 175.38,109.08 234.49,203.74 59.11,94.65 88.9,206.62 88.9,336.35 0,135.99 -32.67,249.87 -97.54,341.17 -65.35,91.77 -163.38,160.97 -294.56,207.58l488.68 920.18 -430.54 0 -465.14 -876.45 -39.89 0 0 876.45 -392.09 0 0 -2070.05zm392.09 810.15l124.94 0c126.85,0 213.82,-16.33 261.88,-49.49 47.57,-33.16 71.6,-87.93 71.6,-164.82 0,-45.16 -12.02,-84.56 -35.56,-118.21 -23.55,-33.63 -55.26,-57.66 -95.14,-72.07 -39.4,-14.9 -112.44,-22.1 -218.64,-22.1l-109.08 0 0 426.69zm2286.54 -862.04c292.63,0 544.42,106.2 754.88,318.1 210.94,211.91 316.18,470.42 316.18,775.07 0,302.24 -103.79,557.88 -311.85,766.9 -207.58,209.02 -459.85,313.77 -756.33,313.77 -310.89,0 -568.93,-107.63 -774.11,-322.43 -205.66,-214.79 -308.49,-469.94 -308.49,-765.46 0,-197.49 48.05,-379.61 143.67,-545.86 95.63,-165.78 227.29,-297.44 394.5,-394.5 167.71,-97.07 348.37,-145.6 541.55,-145.6zm-5.77 386.33c-190.76,0 -351.25,66.79 -480.98,199.89 -130.23,133.11 -195.09,302.25 -195.09,507.91 0,228.72 81.68,409.87 245.54,542.98 127.33,104.27 272.93,156.17 437.74,156.17 185.96,0 344.53,-67.75 475.24,-202.77 131.18,-135.03 196.53,-301.28 196.53,-499.25 0,-197.01 -65.84,-363.75 -197.97,-500.21 -131.66,-136.47 -292.15,-204.7 -481,-204.7zm1493.21 -334.44l394.98 0 0 1339.19c0,115.33 10.1,197.01 30.28,244.58 20.18,48.06 53.34,86.01 99.95,114.85 46.61,28.35 102.82,42.76 168.17,42.76 69.67,0 129.26,-15.85 179.72,-48.05 50.45,-31.72 85.05,-72.08 104.27,-121.58 19.22,-49.01 28.83,-143.19 28.83,-282.06l0 -1289.7 394.99 0 0 1233.96c0,208.54 -11.53,352.7 -35.08,433.43 -23.54,80.73 -68.23,158.57 -134.54,233.52 -65.84,74.96 -142.23,130.7 -228.72,166.74 -86.01,36.05 -186.44,54.3 -300.8,54.3 -149.92,0 -280.62,-34.6 -391.62,-103.31 -111.48,-69.2 -190.77,-155.21 -238.81,-259 -47.57,-103.79 -71.6,-278.7 -71.6,-525.68l0 -1233.96zm1913.66 0l418.52 0c226.32,0 389.21,20.66 489.16,62.47 99.95,41.8 179.23,109.55 236.9,202.77 57.66,93.22 86.48,205.18 86.48,335.88 0,144.63 -37.96,264.76 -113.88,360.39 -75.44,95.62 -178.27,162.41 -308.49,199.89 -76.4,21.62 -215.27,32.2 -416.61,32.2l0 876.45 -392.09 0 0 -2070.05zm392.09 810.15l126.38 0c99.46,0 168.18,-7.21 207.1,-21.14 38.93,-14.42 69.19,-37.48 91.78,-70.16 22.1,-32.67 33.16,-72.07 33.16,-118.68 0,-80.25 -31.24,-138.87 -93.71,-175.39 -45.16,-27.38 -129.74,-41.32 -252.75,-41.32l-111.96 0 0 426.69z"/>
  <polygon class="fil1" points="1743.93,1451.98 3016.7,1451.98 3016.7,1887.05 2185.51,1887.05 2185.51,2305.9 3016.7,2305.9 3016.7,2734.49 2185.51,2734.49 2185.51,3348.14 3016.7,3348.14 3016.7,3783.22 1743.93,3783.22 "/>
  <path class="fil1" d="M5584.42 1832.94l-312.24 308.99c-197.51,-208.88 -428.04,-313.32 -691.04,-313.32 -228.91,0 -421.01,75.77 -575.77,227.82 -154.76,152.06 -232.15,336.6 -232.15,554.13 0,224.58 80.08,415.06 240.81,571.45 160.72,156.39 358.77,234.31 594.18,234.31 153.14,0 282.47,-32.46 387.45,-96.86 104.99,-64.4 189.94,-165.05 254.34,-302.5l-674.81 0 0 -415.6 1172.12 0 3.25 97.94c0,204.01 -53.03,397.2 -158.55,580.1 -106.07,182.37 -242.98,321.99 -410.74,418.3 -168.29,95.78 -365.81,143.95 -592,143.95 -241.89,0 -457.8,-52.49 -647.75,-157.48 -189.94,-105.52 -339.84,-254.87 -450.77,-449.14 -110.39,-194.82 -165.58,-404.24 -165.58,-629.35 0,-308.44 102.27,-576.85 306.28,-804.67 241.89,-271.66 557.38,-407.48 945.38,-407.48 202.92,0 392.86,37.34 569.82,112.56 148.81,63.31 294.91,172.62 437.77,326.85z"/>
 </g>
</svg>
